<svg width="500" height="500" viewBox="0 0 500 500" fill="none" xmlns="http://www.w3.org/2000/svg">
<path d="M473.36 221C473.36 221 430.92 86.56 338.69 45.06C257.29 8.42001 166.17 24.48 128.07 108.53C114.5 138.48 96.86 170.79 75.71 195.39C52 223 20.17 242.19 19.2 309.08C18.23 375.97 77.29 455 132.77 472.08C188.25 489.16 256 455 313.17 422.48C370.34 389.96 520.58 389.43 473.36 221Z" fill="#4A5CF9"/>
<path opacity="0.7" d="M473.36 221C473.36 221 430.92 86.56 338.69 45.06C257.29 8.42001 166.17 24.48 128.07 108.53C114.5 138.48 96.86 170.79 75.71 195.39C52 223 20.17 242.19 19.2 309.08C18.23 375.97 77.29 455 132.77 472.08C188.25 489.16 256 455 313.17 422.48C370.34 389.96 520.58 389.43 473.36 221Z" fill="white"/>
<path d="M27.99 394.23H478.76" stroke="#263238" stroke-linecap="round" stroke-linejoin="round"/>
<path d="M357.06 422.5C409.14 422.5 451.36 419.187 451.36 415.1C451.36 411.013 409.14 407.7 357.06 407.7C304.98 407.7 262.76 411.013 262.76 415.1C262.76 419.187 304.98 422.5 357.06 422.5Z" fill="#263238" stroke="#263238" stroke-linecap="round" stroke-linejoin="round"/>
<path d="M110.16 415.1C133.483 415.1 152.39 411.787 152.39 407.7C152.39 403.613 133.483 400.3 110.16 400.3C86.8371 400.3 67.9301 403.613 67.9301 407.7C67.9301 411.787 86.8371 415.1 110.16 415.1Z" fill="#263238" stroke="#263238" stroke-linecap="round" stroke-linejoin="round"/>
<path d="M175.85 127.09L178.93 130.34C179.737 131.192 180.176 132.327 180.154 133.5C180.131 134.673 179.649 135.79 178.81 136.61C177.974 137.418 176.857 137.87 175.695 137.87C174.532 137.87 173.415 137.418 172.58 136.61L169.3 133.42L175.85 127.09Z" fill="white" stroke="#263238" stroke-width="0.5" stroke-linecap="round" stroke-linejoin="round"/>
<path d="M170.88 134.96L177.2 128.51L175.85 127.09L169.3 133.43L170.88 134.96Z" fill="#263238" stroke="#263238" stroke-width="0.5" stroke-linecap="round" stroke-linejoin="round"/>
<path d="M163.51 129.64L165.87 131.18L166.58 131.65L169.3 133.43L175.85 127.09L174.37 124.09L173.99 123.31L172.71 120.69L172.33 119.91L171.56 118.34C171.451 115.914 170.923 113.526 170 111.28C169.214 109.645 168.085 108.199 166.69 107.04L165.92 107.92L164.71 107.66L164.27 109.27H162.27L161.58 111.42L159 112L158.24 114.51L155.15 115.51L155.24 117.83L153 117.96L152.92 120.67L150.47 121.27L151.15 122.91L150.51 123.29C151.718 124.379 153.027 125.35 154.42 126.19C155.96 126.98 162.82 129.19 162.82 129.19L163.51 129.64ZM164.43 128.74L165.3 127.89L167.55 129.55L166.85 130.23L164.43 128.74ZM171.56 125.65L169.74 123.57L170.3 123.02L171.86 125.36L171.56 125.65ZM170.49 126.65L169.74 127.38L167.74 125.47L168.63 124.61L170.49 126.65ZM168.95 128.15L168.22 128.86L165.94 127.22L166.85 126.35L168.95 128.15ZM169.75 131.15L169.15 131.64L167.58 130.64L168.23 130.01L169.75 131.15ZM171.18 130.09L170.5 130.54L168.9 129.39L169.58 128.72L171.18 130.09ZM172.36 128.73L171.73 129.29L170.34 128L171.05 127.31L172.36 128.73ZM172.1 126.27L172.33 126.05L173.69 128.05L172.1 126.27ZM174.54 127.05L173.23 125.17L173.43 124.97L174.54 127.05ZM173 124.22L172.72 124.49L171.12 122.19L171.65 121.68L173 124.22ZM169.9 119.22L170.62 119.73L171.25 120.93L170.65 121.52L170.2 120.87L169.9 119.22ZM168.22 121.88L167.85 120.19L168.96 121.07L169.81 122.34L169.17 122.96L168.22 121.88ZM166.39 124.27L166.17 122.85L167.31 123.27L168.04 124.06L167.11 124.96L166.39 124.27ZM164.53 126.27L163.8 124.52L165.33 125.12L166.19 125.85L165.24 126.78L164.53 126.27ZM163.41 128.14L162.55 127.14L164.37 127.29L164.6 127.46L163.67 128.36L163.41 128.14Z" fill="white" stroke="#263238" stroke-width="0.5" stroke-linecap="round" stroke-linejoin="round"/>
<path d="M434.6 384.17C434.6 384.17 441.15 407.29 445.29 409.48C449.43 411.67 455.11 407.29 454.89 402.06C454.67 396.83 443.55 382.2 443.55 382.2L434.6 384.17Z" fill="white" stroke="#263238" stroke-linecap="round" stroke-linejoin="round"/>
<path d="M436.89 387.44C442.131 387.44 446.38 382.846 446.38 377.18C446.38 371.514 442.131 366.92 436.89 366.92C431.649 366.92 427.4 371.514 427.4 377.18C427.4 382.846 431.649 387.44 436.89 387.44Z" fill="white" stroke="#263238" stroke-linecap="round" stroke-linejoin="round"/>
<path d="M336 295.58C336 295.58 321.59 319.58 318.32 328.96C315.05 338.34 301.32 393.55 299.99 396.38C298.66 399.21 308.28 404.89 309.59 403.38C310.9 401.87 317.89 382.43 324.43 374.38C330.97 366.33 334.69 356.48 336.65 350.59C338.61 344.7 341.24 337.88 341.24 337.88C341.24 337.88 343.24 335.97 349.96 331.61C356.68 327.25 359.34 323.97 364.14 319.61C368.94 315.25 370.47 314.37 372.87 315.24C375.27 316.11 394.87 337.06 399.93 344.05C404.99 351.04 404.29 351.05 411.49 356.27C418.69 361.49 430.49 377.87 433.75 379.61C437.01 381.35 440.75 381.36 441.17 378.52C441.59 375.68 434.62 350.81 431.35 347.97C428.08 345.13 421.35 343.39 418.48 338.37C415.61 333.35 397.73 287.07 397.29 286C396.85 284.93 382.45 296.25 360.63 294.72C338.81 293.19 336 292.52 336 292.52V295.58Z" fill="white" stroke="#263238" stroke-linecap="round" stroke-linejoin="round"/>
<path d="M397.29 286C396.85 284.9 382.45 296.25 360.63 294.72C338.81 293.19 336 292.52 336 292.52V295.58C336 295.58 333.4 299.9 330.17 305.58C333.321 304.351 336.733 303.948 340.083 304.41C343.434 304.872 346.61 306.184 349.31 308.22C354.18 311.93 357.09 318.67 358.81 324.62C360.51 323.02 362.14 321.39 364.14 319.57C368.94 315.2 370.47 314.33 372.87 315.2C373.82 315.55 377.47 319.04 381.87 323.55C385.59 323.62 390.48 322.67 396.25 319.13C401.59 315.86 403.86 310.27 404.67 304.71C400.71 294.79 397.47 286.43 397.29 286Z" fill="#263238" stroke="#263238" stroke-linecap="round" stroke-linejoin="round"/>
<path d="M348.94 213.33C348.94 213.33 345.27 214.86 336.39 215.01C327.51 215.16 324.45 214.4 318.63 215.32C312.81 216.24 310.36 216.39 310.36 216.39C310.36 216.39 297.04 211.64 294.44 210.73C291.84 209.82 289.54 208.58 281.73 205.83C273.92 203.08 253.41 194.65 249.73 192.97C246.05 191.29 232.12 198.17 232.89 199.24C233.66 200.31 241.62 205.52 244.99 205.98C248.36 206.44 257.69 205.52 258.46 205.67C259.23 205.82 265.2 211.67 273.92 216.54C282.64 221.41 288.16 225.12 293.52 226.54C297.195 227.432 300.933 228.047 304.7 228.38C304.7 228.38 314.03 234.51 318.78 235.88C323.53 237.25 329.65 239.1 329.65 239.1C329.65 239.1 331.34 257.47 331.34 269.26C331.246 277.399 330.681 285.526 329.65 293.6C329.65 293.6 338.65 302.6 362.26 301.87C376.562 301.262 390.16 295.497 400.54 285.64C400.54 285.64 398.85 278.14 394.54 261.45C390.23 244.76 389.33 235.45 389.33 235.45C389.33 235.45 391.78 240.81 403.72 249.69C415.66 258.57 418.72 261.33 420.11 260.87C421.5 260.41 448.28 224.58 451.95 217.87C455.62 211.16 456.24 209.6 456.24 209.6C456.24 209.6 460.06 206.54 461.6 203.6C462.485 202.108 463.009 200.43 463.13 198.7C463.43 197.17 463.13 195.94 465.13 193.04C467.13 190.14 469.87 185.84 469.72 184.46C469.57 183.08 465.72 183.7 459.92 188.46C454.12 193.22 452.11 200.86 451.2 204.38C450.29 207.9 450.12 208.67 450.12 208.67C450.12 208.67 430.83 229.49 426.39 234.85C421.95 240.21 420.12 242.2 420.12 242.2C420.12 242.2 409 232 403.91 225.58C398.82 219.16 393.04 213.48 386.91 212.1C380.78 210.72 370.38 210.27 369.15 210.27H360.15C359.51 210.27 348.94 213.33 348.94 213.33Z" fill="white" stroke="#263238" stroke-linecap="round" stroke-linejoin="round"/>
<path d="M389.36 235.37C389.36 235.37 391.21 239.37 399.46 246.24C400.59 244.07 402.92 241.02 407.73 237.52C409.41 236.3 410.82 235.28 412.04 234.41C409.166 231.622 406.452 228.674 403.91 225.58C398.85 219.15 393.04 213.48 386.91 212.1C380.78 210.72 370.38 210.27 369.15 210.27H360.15C359.54 210.27 348.97 213.33 348.97 213.33C348.97 213.33 345.3 214.86 336.42 215.01C327.54 215.16 324.48 214.4 318.66 215.32C316.26 215.7 314.44 215.94 313.13 216.11C313.983 219.037 314.451 222.062 314.52 225.11C314.534 227.913 314.105 230.701 313.25 233.37C315.022 234.36 316.884 235.18 318.81 235.82C323.56 237.2 329.68 239.04 329.68 239.04C329.68 239.04 331.37 257.41 331.37 269.2C331.276 277.339 330.711 285.466 329.68 293.54C329.68 293.54 338.68 302.54 362.29 301.81C376.592 301.202 390.189 295.437 400.57 285.58C400.57 285.58 398.88 278.08 394.57 261.39C390.26 244.7 389.36 235.37 389.36 235.37Z" fill="white" stroke="#263238" stroke-linecap="round" stroke-linejoin="round"/>
<path d="M403.91 225.58C398.85 219.15 393.04 213.48 386.91 212.1C380.78 210.72 370.38 210.27 369.15 210.27H360.15C359.54 210.27 348.97 213.33 348.97 213.33C348.97 213.33 345.3 214.86 336.42 215.01C327.54 215.16 324.48 214.4 318.66 215.32C316.26 215.7 314.44 215.94 313.13 216.11C313.983 219.037 314.451 222.062 314.52 225.11C314.534 227.913 314.105 230.701 313.25 233.37C315.022 234.36 316.884 235.18 318.81 235.82C323.56 237.2 329.68 239.04 329.68 239.04C329.68 239.04 330.32 245.99 330.81 254.04C335.52 252.64 343.7 249.31 347.9 242.37C354 232.31 354 225.27 361.5 225C369 224.73 380.18 235 384.16 238.63C386.17 240.397 388.316 242.002 390.58 243.43C389.64 238.21 389.36 235.43 389.36 235.43C389.36 235.43 391.21 239.43 399.46 246.3C400.59 244.13 402.92 241.08 407.73 237.58C409.41 236.36 410.82 235.34 412.04 234.47C409.164 231.663 406.45 228.695 403.91 225.58Z" fill="#4A5CF9" stroke="#263238" stroke-linecap="round" stroke-linejoin="round"/>
<path d="M332 244.91C332 244.91 339.31 265.51 346.56 276.69" stroke="#263238" stroke-linecap="round" stroke-linejoin="round"/>
<path d="M348.21 279.13C349.137 280.418 350.229 281.578 351.46 282.58" stroke="#263238" stroke-linecap="round" stroke-linejoin="round"/>
<path d="M347 211.34C347 211.34 343.94 213.34 343.63 216.34C343.32 219.34 343.94 240.53 343.94 240.53C343.94 240.53 350.52 234.25 352.82 232.88C355.12 231.51 360.17 230.58 360.17 230.58C360.17 230.58 365.99 229.35 367.82 229.81C369.65 230.27 379.82 235.17 379.82 235.17C379.82 235.17 374.46 216.8 371.4 212.36C368.34 207.92 359.91 207.46 355.93 208.07C352.816 208.741 349.811 209.842 347 211.34Z" fill="#4A5CF9" stroke="#263238" stroke-linecap="round" stroke-linejoin="round"/>
<path d="M361.04 240.43L363.03 255.89L365.78 255.13L362.42 239.97" stroke="#263238" stroke-linecap="round" stroke-linejoin="round"/>
<path d="M211.92 183.63L253.22 208.93C253.804 209.291 254.505 209.41 255.175 209.262C255.845 209.115 256.432 208.712 256.81 208.14C257.016 207.829 257.153 207.479 257.214 207.111C257.275 206.743 257.258 206.367 257.164 206.007C257.069 205.646 256.9 205.31 256.667 205.019C256.433 204.728 256.142 204.49 255.81 204.32L212.81 182.25L211.92 183.63Z" fill="white" stroke="#263238" stroke-linecap="round" stroke-linejoin="round"/>
<path d="M214.78 178.09C211.55 187.97 199.32 192.85 187.46 188.97C175.6 185.09 168.62 173.97 171.85 164.05C175.08 154.13 187.31 149.3 199.17 153.17C211.03 157.04 218 168.2 214.78 178.09Z" fill="white" stroke="#263238" stroke-linecap="round" stroke-linejoin="round"/>
<path d="M213.47 172.92C213.466 174.452 213.223 175.973 212.75 177.43C212.63 177.81 212.49 178.16 212.34 178.52C212.249 178.752 212.145 178.979 212.03 179.2C211.659 179.976 211.218 180.716 210.71 181.41C210.46 181.76 210.21 182.09 209.93 182.41C209.302 183.141 208.605 183.811 207.85 184.41L207.63 184.58C206.871 185.17 206.061 185.692 205.21 186.14C204.408 186.573 203.572 186.941 202.71 187.24C202.24 187.42 201.71 187.57 201.28 187.71C200.9 187.82 200.52 187.91 200.13 187.99C199.26 188.185 198.378 188.318 197.49 188.39C196.59 188.479 195.684 188.502 194.78 188.46C194.28 188.46 193.77 188.43 193.25 188.37C192.85 188.37 192.44 188.29 192.03 188.22C191.07 188.085 190.121 187.881 189.19 187.61C188.8 187.51 188.42 187.4 188.04 187.28C187.427 187.08 186.837 186.86 186.27 186.62C185.99 186.52 185.71 186.39 185.45 186.27C184.69 185.92 183.96 185.54 183.25 185.13C182.54 184.72 181.94 184.31 181.33 183.86C180.91 183.56 180.51 183.24 180.12 182.91C179.53 182.423 178.973 181.899 178.45 181.34C177.811 180.69 177.22 179.995 176.68 179.26C176.56 179.1 176.44 178.93 176.33 178.76C175.748 177.931 175.236 177.054 174.8 176.14C174.398 175.277 174.064 174.384 173.8 173.47C173.293 171.694 173.107 169.842 173.25 168C173.333 167.052 173.507 166.115 173.77 165.2C173.801 165.071 173.841 164.944 173.89 164.82V164.74C174.152 163.915 174.486 163.115 174.89 162.35C175.166 161.853 175.47 161.373 175.8 160.91C176.157 160.392 176.551 159.901 176.98 159.44C177.297 159.091 177.631 158.757 177.98 158.44C178.713 157.772 179.507 157.173 180.35 156.65L180.79 156.39C181.434 156.014 182.103 155.68 182.79 155.39C183.621 155.034 184.476 154.74 185.35 154.51C186.206 154.269 187.078 154.088 187.96 153.97C188.851 153.839 189.75 153.769 190.65 153.76C191.565 153.737 192.48 153.774 193.39 153.87C194.334 153.967 195.273 154.117 196.2 154.32C196.974 154.488 197.739 154.698 198.49 154.95L199.04 155.14C200.068 155.493 201.071 155.917 202.04 156.41C202.568 156.674 203.082 156.964 203.58 157.28C204.11 157.6 204.64 157.95 205.13 158.28C205.757 158.725 206.355 159.209 206.92 159.73C207.443 160.185 207.941 160.669 208.41 161.18C208.75 161.54 209.05 161.91 209.35 162.28C210.015 163.097 210.607 163.97 211.12 164.89C211.608 165.74 212.023 166.63 212.36 167.55C212.689 168.422 212.937 169.322 213.1 170.24C213.3 171.121 213.424 172.018 213.47 172.92Z" stroke="#263238" stroke-linecap="round" stroke-linejoin="round"/>
<path d="M176.65 179.25L176.55 178.73L176.03 176.01L175.51 173.32L174.97 170.6L174.45 167.88L173.93 165.17L173.85 164.81V164.8" stroke="#263238" stroke-width="0.5" stroke-linecap="round" stroke-linejoin="round"/>
<path d="M180.09 182.9L179.76 181.22L179.24 178.5L178.7 175.8L178.18 173.09L177.66 170.38L177.13 167.66L176.6 164.95L176.07 162.24L175.81 160.88" stroke="#263238" stroke-width="0.5" stroke-linecap="round" stroke-linejoin="round"/>
<path d="M183.23 185.12L182.96 183.71L182.43 181L181.91 178.29L181.38 175.57L180.86 172.87L180.33 170.16L179.8 167.44L179.28 164.73L178.74 162.01L178.22 159.31L178.04 158.37" stroke="#263238" stroke-width="0.5" stroke-linecap="round" stroke-linejoin="round"/>
<path d="M186.25 186.62V186.61L186.16 186.2L185.64 183.49L185.11 180.78L184.59 178.06L184.06 175.35L183.53 172.65L183.01 169.94L182.47 167.22L181.95 164.5L181.43 161.8L180.9 159.08L180.41 156.58L180.37 156.37" stroke="#263238" stroke-width="0.5" stroke-linecap="round" stroke-linejoin="round"/>
<path d="M182.88 155.3L183.05 156.15L183.58 158.86L184.1 161.57L184.63 164.29L185.16 166.99L185.68 169.71L186.22 172.43L186.74 175.13L187.26 177.84L187.79 180.55L188.32 183.27L188.85 185.98L189.17 187.61" stroke="#263238" stroke-width="0.5" stroke-linecap="round" stroke-linejoin="round"/>
<path d="M192.05 188.47L192.01 188.22L191.53 185.76L191 183.04L190.47 180.34L189.95 177.62L189.41 174.91L188.89 172.2L188.37 169.49L187.84 166.78L187.31 164.06L186.78 161.35L186.26 158.64L185.73 155.93L185.44 154.42" stroke="#263238" stroke-width="0.5" stroke-linecap="round" stroke-linejoin="round"/>
<path d="M188.05 153.88L188.41 155.7L188.93 158.42L189.47 161.13L189.99 163.84L190.52 166.55L191.04 169.27L191.58 171.99L192.1 174.68L192.62 177.4L193.15 180.11L193.68 182.83L194.2 185.53L194.73 188.25L194.77 188.47" stroke="#263238" stroke-width="0.5" stroke-linecap="round" stroke-linejoin="round"/>
<path d="M190.74 153.67L191.08 155.48L191.62 158.19L192.14 160.91L192.67 163.62L193.19 166.33L193.72 169.04L194.25 171.76L194.77 174.47L195.31 177.17L195.83 179.89L196.35 182.6L196.88 185.32L197.41 188.02L197.48 188.39" stroke="#263238" stroke-width="0.5" stroke-linecap="round" stroke-linejoin="round"/>
<path d="M193.48 153.78L193.77 155.26L194.29 157.97L194.82 160.68L195.35 163.4L195.87 166.11L196.4 168.83L196.93 171.53L197.46 174.24L197.98 176.96L198.5 179.67L199.04 182.38L199.56 185.09L200.09 187.81L200.12 187.99" stroke="#263238" stroke-width="0.5" stroke-linecap="round" stroke-linejoin="round"/>
<path d="M202.77 187.58L202.71 187.25L202.25 184.87L201.71 182.16L201.19 179.45L200.66 176.73L200.13 174.01L199.61 171.32L199.08 168.6L198.56 165.89L198.02 163.17L197.5 160.47L196.98 157.75L196.44 155.03L196.29 154.23" stroke="#263238" stroke-width="0.5" stroke-linecap="round" stroke-linejoin="round"/>
<path d="M199.13 154.82L199.17 155.06L199.65 157.52L200.17 160.24L200.71 162.96L201.23 165.66L201.76 168.38L202.29 171.09L202.81 173.8L203.34 176.5L203.86 179.22L204.4 181.94L204.92 184.65L205.21 186.14" stroke="#263238" stroke-width="0.5" stroke-linecap="round" stroke-linejoin="round"/>
<path d="M207.63 184.58L207.59 184.43L207.07 181.71L206.55 179L206.02 176.29L205.49 173.57L204.96 170.87L204.44 168.16L203.91 165.45L203.38 162.73L202.86 160.01L202.33 157.31L202.14 156.34" stroke="#263238" stroke-width="0.5" stroke-linecap="round" stroke-linejoin="round"/>
<path d="M205.24 158.23L205.53 159.8L206.07 162.5L206.59 165.22L207.11 167.94L207.65 170.65L208.17 173.35L208.7 176.06L209.22 178.78L209.75 181.5L209.93 182.41" stroke="#263238" stroke-width="0.5" stroke-linecap="round" stroke-linejoin="round"/>
<path d="M208.52 161.13L208.74 162.29L209.26 165L209.8 167.71L210.32 170.43L210.85 173.13L211.38 175.84L211.9 178.55L212.03 179.2" stroke="#263238" stroke-width="0.5" stroke-linecap="round" stroke-linejoin="round"/>
<path d="M180.37 156.37L180.84 156.32H180.86L183.05 156.15L185.73 155.93L188.41 155.7L191.08 155.48L193.77 155.26L196.44 155.03L198.58 154.86H198.59L199.13 154.82" stroke="#263238" stroke-width="0.5" stroke-linecap="round" stroke-linejoin="round"/>
<path d="M203.69 157.2H203.68L202.33 157.31L199.65 157.52L196.98 157.75L194.29 157.97L191.62 158.19L188.93 158.42L186.26 158.64L183.58 158.86L180.9 159.08L178.22 159.31L176.99 159.41" stroke="#263238" stroke-width="0.5" stroke-linecap="round" stroke-linejoin="round"/>
<path d="M174.9 162.33L176.07 162.24L178.74 162.01L181.43 161.8L184.1 161.57L186.78 161.35L189.47 161.13L192.14 160.91L194.82 160.68L197.5 160.47L200.17 160.24L202.86 160.01L205.53 159.8L207.03 159.68" stroke="#263238" stroke-width="0.5" stroke-linecap="round" stroke-linejoin="round"/>
<path d="M173.73 165.19L173.93 165.17L176.6 164.95L179.28 164.73L181.95 164.5L184.63 164.29L187.31 164.06L189.99 163.84L192.67 163.62L195.35 163.4L198.02 163.17L200.71 162.96L203.38 162.73L206.07 162.5L208.74 162.29L209.46 162.23" stroke="#263238" stroke-width="0.5" stroke-linecap="round" stroke-linejoin="round"/>
<path d="M173.21 167.99L174.45 167.88L177.13 167.66L179.8 167.44L182.47 167.22L185.16 166.99L187.84 166.78L190.52 166.55L193.19 166.33L195.87 166.11L198.56 165.89L201.23 165.66L203.91 165.45L206.59 165.22L209.26 165L211.23 164.84" stroke="#263238" stroke-width="0.5" stroke-linecap="round" stroke-linejoin="round"/>
<path d="M173.24 170.75L174.97 170.6L177.66 170.38L180.33 170.16L183.01 169.94L185.68 169.71L188.37 169.49L191.04 169.27L193.72 169.04L196.4 168.83L199.08 168.6L201.76 168.38L204.44 168.16L207.11 167.94L209.8 167.71L212.47 167.5" stroke="#263238" stroke-width="0.5" stroke-linecap="round" stroke-linejoin="round"/>
<path d="M173.76 173.46L175.51 173.32L178.18 173.09L180.86 172.87L183.53 172.65L186.22 172.43L188.89 172.2L191.58 171.99L194.25 171.76L196.93 171.53L199.61 171.32L202.29 171.09L204.96 170.87L207.65 170.65L210.32 170.43L213.21 170.19" stroke="#263238" stroke-width="0.5" stroke-linecap="round" stroke-linejoin="round"/>
<path d="M174.77 176.13L176.03 176.01L178.7 175.8L181.38 175.57L184.06 175.35L186.74 175.13L189.41 174.91L192.1 174.68L194.77 174.47L197.46 174.24L200.13 174.01L202.81 173.8L205.49 173.57L208.17 173.35L210.85 173.13L213.47 172.92" stroke="#263238" stroke-width="0.5" stroke-linecap="round" stroke-linejoin="round"/>
<path d="M176.29 178.75L176.55 178.73L179.24 178.5L181.91 178.29L184.59 178.06L187.26 177.84L189.95 177.62L192.62 177.4L195.31 177.17L197.98 176.96L200.66 176.73L203.34 176.5L206.02 176.29L208.7 176.06L211.38 175.84L213.2 175.69" stroke="#263238" stroke-width="0.5" stroke-linecap="round" stroke-linejoin="round"/>
<path d="M178.42 181.33L179.76 181.22L182.43 181L185.11 180.78L187.79 180.55L190.47 180.34L193.15 180.11L195.83 179.89L198.5 179.67L201.19 179.45L203.86 179.22L206.55 179L209.22 178.78L211.9 178.55L212.34 178.52" stroke="#263238" stroke-width="0.5" stroke-linecap="round" stroke-linejoin="round"/>
<path d="M181.3 183.85H181.31L182.96 183.71L185.64 183.49L188.32 183.27L191 183.04L193.68 182.83L196.35 182.6L199.04 182.38L201.71 182.16L204.4 181.94L207.07 181.71L209.75 181.5L210.71 181.41" stroke="#263238" stroke-width="0.5" stroke-linecap="round" stroke-linejoin="round"/>
<path d="M185.43 186.26L186.16 186.2L188.85 185.98L191.53 185.76L194.2 185.53L196.88 185.32L199.56 185.09L202.25 184.87L204.92 184.65L207.59 184.43L207.85 184.41" stroke="#263238" stroke-width="0.5" stroke-linecap="round" stroke-linejoin="round"/>
<path d="M202.77 187.58L201.28 187.71H201.27L200.09 187.81L197.41 188.02L194.73 188.25L193.24 188.37H193.23L192.05 188.47" stroke="#263238" stroke-width="0.5" stroke-linecap="round" stroke-linejoin="round"/>
<path d="M453.51 204.45C453.51 204.45 455.2 199.24 456.73 197.25C458.26 195.26 465.15 188.37 465.15 190.67C465.21 191.452 465.104 192.239 464.841 192.978C464.577 193.717 464.161 194.392 463.62 194.96C462.807 195.836 461.935 196.654 461.01 197.41C461.01 197.41 460.86 202.15 459.94 203.68C459.02 205.21 455.94 206.59 455.94 206.59" stroke="#263238" stroke-linecap="round" stroke-linejoin="round"/>
<path d="M456.57 193C456.57 193 462.57 188.25 465.15 187C467.73 185.75 466.68 191 465.15 193" stroke="#263238" stroke-linecap="round" stroke-linejoin="round"/>
<path d="M464.53 185.31C464.53 185.31 469.43 183.78 467.9 188.07" stroke="#263238" stroke-linecap="round" stroke-linejoin="round"/>
<path d="M369.15 170.77C369.15 170.77 384 153.77 392.88 158.77C401.76 163.77 401.3 175.92 406.2 176.07C411.1 176.22 423.04 170.26 427.94 177.15C432.84 184.04 428.56 191.69 430.7 193.68C432.84 195.67 437.44 192.15 437.44 192.15C437.44 192.15 433.44 205.93 429.32 212.82C425.2 219.71 410.32 223.38 407.43 218.33C404.54 213.28 406.36 208.99 402.83 210.06C399.3 211.13 392.58 213.89 387.98 211.13C383.38 208.37 385.98 202.87 384.16 196.28C382.34 189.69 381.55 191.69 377.88 191.08C374.21 190.47 370.53 183.08 370.53 182.2C370.53 181.32 369.15 170.77 369.15 170.77Z" fill="#263238" stroke="#263238" stroke-linecap="round" stroke-linejoin="round"/>
<path d="M339.91 169.69C339.91 169.69 338.99 171.38 336.23 179.34C333.47 187.3 333.33 195.57 335.93 200.93C338.53 206.29 341.29 213.02 343.43 213.48C345.264 213.713 347.122 213.663 348.94 213.33L361.19 239.05L366.09 210.27L365.94 203.53C365.94 203.53 372.68 202.53 374.47 199.05C375.89 196.31 375.68 193.13 374.61 191.75C373.54 190.37 370.84 190.21 370.84 190.21C372.34 185.194 372.601 179.889 371.6 174.75C369.92 166.33 362.11 161.58 354.3 161.43C346.49 161.28 342.82 165.71 339.91 169.69Z" fill="white" stroke="#263238" stroke-linecap="round" stroke-linejoin="round"/>
<path d="M371.6 174.75C369.92 166.33 362.11 161.58 354.3 161.43C352.026 161.344 349.762 161.764 347.67 162.66C347.76 163.04 348.46 163.66 351.85 163.72C356.85 163.88 360.73 161.58 362.85 167.09C364.97 172.6 361 176 361.5 179.34C362 182.68 365.32 186.99 366.86 189.29C367.285 189.923 367.935 190.37 368.678 190.541C369.421 190.712 370.201 190.594 370.86 190.21C372.354 185.192 372.608 179.887 371.6 174.75Z" fill="#263238" stroke="#263238" stroke-linecap="round" stroke-linejoin="round"/>
<path d="M345.42 183.47C345.42 183.47 344.81 186.99 344.04 187.61C343.27 188.23 340.52 188.83 340.98 190.21C341.553 191.321 342.395 192.269 343.43 192.97" stroke="#263238" stroke-linecap="round" stroke-linejoin="round"/>
<path d="M341.9 197.25C341.9 197.25 347.11 199.7 349.4 199.09C351.339 198.364 353.149 197.331 354.76 196.03" stroke="#263238" stroke-linecap="round" stroke-linejoin="round"/>
<path d="M353.08 194.5L356.44 196.33" stroke="#263238" stroke-linecap="round" stroke-linejoin="round"/>
<path d="M350.78 178.11C351.746 177.432 352.935 177.15 354.103 177.321C355.271 177.492 356.329 178.104 357.06 179.03" stroke="#263238" stroke-linecap="round" stroke-linejoin="round"/>
<path d="M344.35 178.73C344.35 178.73 339.91 177.04 338.07 180.1" stroke="#263238" stroke-linecap="round" stroke-linejoin="round"/>
<path d="M354 184.16C354 185.22 353.49 186.08 352.86 186.08C352.23 186.08 351.71 185.22 351.71 184.16C351.71 183.1 352.22 182.25 352.86 182.25C353.5 182.25 354 183.1 354 184.16Z" fill="#263238"/>
<path d="M340.45 186.3C341.085 186.3 341.6 185.445 341.6 184.39C341.6 183.335 341.085 182.48 340.45 182.48C339.815 182.48 339.3 183.335 339.3 184.39C339.3 185.445 339.815 186.3 340.45 186.3Z" fill="#263238"/>
<path d="M348.94 213.33L357.52 210.11L352.62 220.06L348.94 213.33Z" fill="#263238" stroke="#263238" stroke-linecap="round" stroke-linejoin="round"/>
<path d="M234.27 194.34C234.27 194.34 229.37 200.34 229.98 201.34C230.59 202.34 243.91 208.23 245.14 207.61C246.37 206.99 249.27 202.1 249.73 201.34C250.19 200.58 236.56 193.34 235.8 193.34C235.04 193.34 234.27 194.34 234.27 194.34Z" fill="white" stroke="#263238" stroke-linecap="round" stroke-linejoin="round"/>
<path d="M233.2 202.92L238.4 195.26" stroke="#263238" stroke-linecap="round" stroke-linejoin="round"/>
<path d="M237.64 205.21L242.84 197.1" stroke="#263238" stroke-linecap="round" stroke-linejoin="round"/>
<path d="M241 206.9L246.06 199.4" stroke="#263238" stroke-linecap="round" stroke-linejoin="round"/>
<path d="M255.86 195.72C255.86 195.72 245.86 190.21 242.69 188.83C239.52 187.45 233.69 191.89 230.9 192.97C228.11 194.05 226.46 195.11 230.75 195.87C235.04 196.63 240.24 194.34 240.24 194.34C240.24 194.34 244.83 199.85 249.12 200.16" fill="white"/>
<path d="M255.86 195.72C255.86 195.72 245.86 190.21 242.69 188.83C239.52 187.45 233.69 191.89 230.9 192.97C228.11 194.05 226.46 195.11 230.75 195.87C235.04 196.63 240.24 194.34 240.24 194.34C240.24 194.34 244.83 199.85 249.12 200.16" stroke="#263238" stroke-linecap="round" stroke-linejoin="round"/>
<path d="M295.61 399.22C295.61 399.22 298.23 393.77 301.94 393.33C305.65 392.89 311.54 397.91 311.94 401.4C312.34 404.89 309.94 407.95 309.11 408.4C308.28 408.85 303.87 407.3 301.25 404.9C298.63 402.5 295.61 399.22 295.61 399.22Z" fill="white" stroke="#263238" stroke-linecap="round" stroke-linejoin="round"/>
<path d="M307.83 405.33C307.83 405.33 297.83 397.91 294.52 395.73C291.21 393.55 284.92 385.04 281.43 384.17C277.94 383.3 276.84 390.27 278.59 396.17C280.34 402.07 285.14 409.26 289.72 411.66C294.3 414.06 299.72 418.86 303.03 417.99C306.34 417.12 310.45 410.99 310.66 408.39C310.87 405.79 307.83 405.33 307.83 405.33Z" fill="white" stroke="#263238" stroke-linecap="round" stroke-linejoin="round"/>
<path d="M278.59 396.17C280.33 402.06 285.14 409.26 289.72 411.66C294.3 414.06 299.72 418.86 303.03 417.99C304.5 417.59 306.15 416.14 307.54 414.41C306.499 412.697 305.018 411.295 303.25 410.35C298.66 407.95 292.77 401.84 289.72 394.2C286.67 386.56 281.43 384.2 281.43 384.2C277.93 383.29 276.84 390.27 278.59 396.17Z" fill="white" stroke="#263238" stroke-linecap="round" stroke-linejoin="round"/>
<path d="M145.05 385C145.05 385 140.9 396.57 139.81 398.09C138.72 399.61 133.49 401.37 133.7 403.09C133.91 404.81 145.7 403.75 148.98 402.87C152.26 401.99 152.69 398.29 154.87 395.67C157.05 393.05 162.07 388.47 161.87 386.73C161.67 384.99 154.45 381.73 152.71 381.27C150.97 380.81 145.49 383.07 145.05 385Z" fill="white" stroke="#263238" stroke-linecap="round" stroke-linejoin="round"/>
<path d="M114.5 292.73C114.5 292.73 101.85 316.08 100.1 326.73C98.3501 337.38 96.1701 357.93 98.1001 359.24C100.03 360.55 144.61 387 144.61 387C144.61 387 149.41 390.06 151.38 388.75C153.35 387.44 153.12 385.7 152.91 383.95C152.7 382.2 121.7 351.22 121.7 351.22C121.7 351.22 116.7 345.11 120.61 338.35C124.52 331.59 153.61 296.89 155.09 294.05C156.57 291.21 159.02 289.69 154.65 287.29C154.65 287.29 137.41 292.52 127.81 293.62C118.21 294.72 114.5 292.73 114.5 292.73Z" fill="white" stroke="#263238" stroke-linecap="round" stroke-linejoin="round"/>
<path d="M132.18 306.7C140.69 315.21 150.07 296.01 150.07 296.01L143 290.52C138.021 291.857 132.965 292.889 127.86 293.61C118.26 294.7 114.55 292.73 114.55 292.73C114.55 292.73 113.29 295.05 111.55 298.56C116.49 299 126.11 300.63 132.18 306.7Z" fill="#263238" stroke="#263238" stroke-linecap="round" stroke-linejoin="round"/>
<path d="M111.45 214.84C111.45 214.84 95.3 220.29 91.59 223.78C87.88 227.27 83.95 237.78 83.95 237.78L76.75 244.1C72.5786 246.133 68.6391 248.611 65 251.49C59.3 256.07 45.33 270 45.33 270C45.33 270 33.11 267.6 31.33 269.56C29.55 271.52 30.46 278.95 30.89 279.56C31.32 280.17 31.98 280.87 32.64 279.34C33.3 277.81 33.07 276.94 33.51 275.63C33.95 274.32 39.18 274.54 39.18 274.54C39.18 274.54 32.42 280.65 33.51 281.74C34.6 282.83 36.78 281.09 37.87 280.22C38.96 279.35 40.93 277.6 41.58 277.6C43.5721 277.406 45.5042 276.811 47.26 275.85C48.4124 274.978 49.5048 274.029 50.53 273.01C50.53 273.01 73.44 262.54 80.42 257.74C87.4 252.94 90.42 250.32 90.42 250.32L97.62 247.7L101.77 245.96C101.77 245.96 110.71 262.54 110.93 276.29C111.15 290.04 108.75 294.4 108.75 294.4C108.75 294.4 125.33 297.89 132.32 297.4C139.31 296.91 143.01 291.08 151.52 291.08H164.17C164.662 285.197 164.662 279.283 164.17 273.4C163.481 268.032 162.463 262.712 161.12 257.47C161.12 257.47 156.12 228.02 154.79 223.87C153.46 219.72 144.32 216.87 138.64 215.58C132.96 214.29 119.52 209.6 111.45 214.84Z" fill="white" stroke="#263238" stroke-linecap="round" stroke-linejoin="round"/>
<path d="M135.23 292.3C135.23 292.3 111.23 329.83 109.05 336.15C106.87 342.47 104.25 399.65 104.25 399.65C104.25 399.65 96.39 406.65 92.68 410.56C88.97 414.47 84.17 415.36 85.92 416.45C87.67 417.54 95.74 418.85 100.76 417.54C105.78 416.23 114.07 413.4 115.16 412.54C116.25 411.68 116.47 410.8 116.47 407.54C116.47 404.28 115.69 405.91 115.59 402.74C115.38 395.53 117.59 385.93 119.52 377.64C121.73 368.34 126.94 349.49 126.94 346.64C126.937 344.964 127.085 343.29 127.38 341.64C127.38 341.64 162.07 320.91 165.13 310.44C168.19 299.97 162.94 289 162.94 289C162.94 289 146.58 285.1 135.23 292.3Z" fill="white" stroke="#263238" stroke-linecap="round" stroke-linejoin="round"/>
<path d="M135.23 292.3C135.23 292.3 132.92 295.91 129.67 301.07C135.04 298.89 147.03 295.45 154 304.73C158 310.02 159.35 314.58 159.66 318.04C162.45 315.24 164.49 312.6 165.13 310.41C168.18 299.93 162.94 289.02 162.94 289.02C162.94 289.02 146.58 285.1 135.23 292.3Z" fill="#263238" stroke="#263238" stroke-linecap="round" stroke-linejoin="round"/>
<path d="M92.68 410.56C88.97 414.49 84.17 415.36 85.92 416.45C87.67 417.54 95.74 418.85 100.76 417.54C105.78 416.23 114.07 413.4 115.16 412.54C116.25 411.68 116.47 410.8 116.47 407.54C116.47 404.28 115.76 405.76 115.61 403.12L111 404C110.485 402.518 109.751 401.123 108.82 399.86C106.82 396.8 104.24 399.64 104.24 399.64C104.24 399.64 96.39 406.63 92.68 410.56Z" fill="white" stroke="#263238" stroke-linecap="round" stroke-linejoin="round"/>
<path d="M132.4 297.53C139.4 297.1 143.09 291.21 151.6 291.21H164.25C164.742 285.327 164.742 279.413 164.25 273.53C163.561 268.162 162.543 262.842 161.2 257.6C161.2 257.6 156.2 228.15 154.87 224C153.54 219.85 144.4 217 138.72 215.71C133.04 214.42 119.52 209.6 111.45 214.84C111.45 214.84 95.3001 220.29 91.5901 223.78C87.8801 227.27 83.9501 237.78 83.9501 237.78L83.5601 238.12C83.9986 240.071 84.8815 241.895 86.1401 243.45C88.4501 246.31 92.5601 247.9 95.3101 248.68L97.7001 247.81L101.85 246.07C101.85 246.07 110.79 262.65 111.01 276.4C111.23 290.15 108.83 294.51 108.83 294.51C108.83 294.51 125.41 298 132.4 297.53Z" fill="white" stroke="#263238" stroke-linecap="round" stroke-linejoin="round"/>
<path d="M120.61 236.87L122.79 249.09L126.07 248.44L123.23 235.56" stroke="#263238" stroke-linecap="round" stroke-linejoin="round"/>
<path d="M120.94 289.31C117.54 290.61 115.38 291.21 115.38 291.21" stroke="#263238" stroke-linecap="round" stroke-linejoin="round"/>
<path d="M143.52 276.8C138.004 281.044 131.989 284.597 125.61 287.38" stroke="#263238" stroke-linecap="round" stroke-linejoin="round"/>
<path d="M146.46 279.28C142.46 282.38 136.99 286.17 131.74 288.15" stroke="#263238" stroke-linecap="round" stroke-linejoin="round"/>
<path d="M152.25 274.4C152.25 274.4 151.25 275.4 149.47 276.84" stroke="#263238" stroke-linecap="round" stroke-linejoin="round"/>
<path d="M154.87 224C153.56 219.85 144.4 217 138.72 215.71C133.04 214.42 119.52 209.6 111.45 214.84C111.45 214.84 95.3001 220.29 91.5901 223.78C87.8801 227.27 83.9501 237.78 83.9501 237.78L83.5601 238.12C83.9986 240.071 84.8815 241.895 86.1401 243.45C88.4501 246.31 92.5601 247.9 95.3101 248.68L97.7001 247.81L101.85 246.07C101.85 246.07 97.7001 233.41 98.3601 231.67C99.0201 229.93 116.9 218.57 116.9 218.57C116.9 218.57 119.74 220.1 122.36 221.19C124.98 222.28 128.03 223.59 128.03 223.59L160.63 254.31C159.27 246.46 155.91 227.29 154.87 224Z" fill="#4A5CF9" stroke="#263238" stroke-linecap="round" stroke-linejoin="round"/>
<path d="M90.5 250.4C90.5 250.4 82.65 251.93 81.12 246.26" stroke="#263238" stroke-linecap="round" stroke-linejoin="round"/>
<path d="M114.72 210.69C114.72 210.69 110.58 211.56 109.72 214.62C108.86 217.68 105.58 233.82 107.54 233.38C109.5 232.94 120.41 227.27 122.16 226.18C123.91 225.09 134.6 235.13 135.91 234.04C137.22 232.95 140.05 220.29 137.43 214.18C134.81 208.07 123.69 208.94 121.29 209.6C119.124 210.096 116.93 210.46 114.72 210.69Z" fill="#4A5CF9" stroke="#263238" stroke-linecap="round" stroke-linejoin="round"/>
<path d="M139.6 173.6C139.6 173.6 143.09 174.47 150.72 185.81C158.35 197.15 150.07 207.81 143.31 209.6C136.55 211.39 129.89 211.02 128.25 201.74C126.61 192.46 135 172.29 139.6 173.6Z" fill="#263238" stroke="#263238" stroke-linecap="round" stroke-linejoin="round"/>
<path d="M112.32 208.51C112.32 208.51 114.94 221.16 116.68 224.44C118.42 227.72 120.61 234.04 121.49 234.25C122.37 234.46 131.3 217.25 131.74 216.14C132.18 215.03 131.09 205.23 131.09 205.23C131.09 205.23 125 210.47 112.32 208.51Z" fill="white" stroke="#263238" stroke-linecap="round" stroke-linejoin="round"/>
<path d="M124.06 212.23L114.25 208.75C113.62 208.68 112.98 208.61 112.32 208.51C112.32 208.51 114.02 216.74 115.6 221.64L124.06 212.23Z" fill="#263238" stroke="#263238" stroke-linecap="round" stroke-linejoin="round"/>
<path d="M104.47 193.23C104.47 193.23 107.3 204.36 109.27 206.98C111.24 209.6 118.21 214.62 121.7 214.4C125.19 214.18 132.4 208.07 133.7 204.4C135 200.73 136.76 187.82 136.76 187.82C136.76 187.82 131.96 175.38 129.56 172.98C127.16 170.58 117.99 170.14 113.63 173.42C109.27 176.7 104.47 181.05 103.81 183.67C103.15 186.29 104.47 193.23 104.47 193.23Z" fill="white" stroke="#263238" stroke-linecap="round" stroke-linejoin="round"/>
<path d="M125.85 174.47C125.85 174.47 114.72 184.47 111.01 186.25C107.3 188.03 106.21 188 106.21 188C106.21 188 105.56 192.14 104.47 193.23C103.38 194.32 101.19 191.71 101.19 191.71C101.19 191.71 93.12 185.38 92.68 180.58C92.24 175.78 99.68 159.58 117.12 159.85C134.56 160.12 139.6 166.18 139.6 173.6C139.485 178.456 138.524 183.255 136.76 187.78C136.54 188.65 136.1 193.45 134.58 192.36C133.06 191.27 131.3 186.91 131.3 186.91C131.3 186.91 125.85 176.87 125.85 174.47Z" fill="#263238" stroke="#263238" stroke-linecap="round" stroke-linejoin="round"/>
<path d="M119.3 197.6C119.3 197.6 122.36 198.03 123.23 196.72" stroke="#263238" stroke-linecap="round" stroke-linejoin="round"/>
<path d="M114.28 200.22C114.28 200.22 117.78 202.83 121.05 202.4C123.211 201.992 125.193 200.923 126.72 199.34" stroke="#263238" stroke-linecap="round" stroke-linejoin="round"/>
<path d="M113.96 192.79C114.744 192.79 115.38 191.863 115.38 190.72C115.38 189.577 114.744 188.65 113.96 188.65C113.176 188.65 112.54 189.577 112.54 190.72C112.54 191.863 113.176 192.79 113.96 192.79Z" fill="#263238"/>
<path d="M126.61 192.47C127.394 192.47 128.03 191.543 128.03 190.4C128.03 189.257 127.394 188.33 126.61 188.33C125.826 188.33 125.19 189.257 125.19 190.4C125.19 191.543 125.826 192.47 126.61 192.47Z" fill="#263238"/>
<path d="M111 186.25C111 186.25 114.06 182.32 116.24 184.72" stroke="#263238" stroke-linecap="round" stroke-linejoin="round"/>
<path d="M124.76 185.16C124.76 185.16 127.38 182.54 129.76 186.03" stroke="#263238" stroke-linecap="round" stroke-linejoin="round"/>
<path d="M104.47 193.23C104.47 193.23 102.72 186.91 101.19 191.71C99.6601 196.51 106.43 200.22 106.43 200.22L104.47 193.23Z" fill="white" stroke="#263238" stroke-linecap="round" stroke-linejoin="round"/>
<path d="M136.54 190.18C136.54 190.18 138.72 185.81 139.16 190.83C139.257 192.31 138.941 193.787 138.247 195.097C137.553 196.407 136.508 197.499 135.23 198.25L136.54 190.18Z" fill="white" stroke="#263238" stroke-linecap="round" stroke-linejoin="round"/>
<path d="M166.65 307.57C166.022 309.723 165.515 311.91 165.13 314.12C165.13 315.21 167.13 320.23 167.74 321.53C168.35 322.83 170.62 322.08 170.36 320.01C170.1 317.94 168.83 315.64 169.27 314.55" fill="white"/>
<path d="M166.65 307.57C166.022 309.723 165.515 311.91 165.13 314.12C165.13 315.21 167.13 320.23 167.74 321.53C168.35 322.83 170.62 322.08 170.36 320.01C170.1 317.94 168.83 315.64 169.27 314.55" stroke="#263238" stroke-linecap="round" stroke-linejoin="round"/>
<path d="M145.49 218.11C145.49 218.11 157.05 218.76 162.73 225.31C168.41 231.86 182.58 266.31 182.36 268.31C182.14 270.31 174.94 304.31 174.94 304.31C174.94 304.31 179.94 311.51 178.65 313.04C177.36 314.57 176.04 317.84 174.51 318.71C173.221 319.402 171.813 319.846 170.36 320.02C168.36 320.45 166.43 312.82 166.43 308.89C166.43 304.96 167.53 268.96 167.53 268.96L147.67 235.57" fill="#4A5CF9"/>
<path d="M145.49 218.11C145.49 218.11 157.05 218.76 162.73 225.31C168.41 231.86 182.58 266.31 182.36 268.31C182.14 270.31 174.94 304.31 174.94 304.31C174.94 304.31 179.94 311.51 178.65 313.04C177.36 314.57 176.04 317.84 174.51 318.71C173.221 319.402 171.813 319.846 170.36 320.02C168.36 320.45 166.43 312.82 166.43 308.89C166.43 304.96 167.53 268.96 167.53 268.96L147.67 235.57" stroke="#263238" stroke-linecap="round" stroke-linejoin="round"/>
<path d="M178.65 313C179.96 311.47 174.94 304.27 174.94 304.27C174.94 304.27 182.14 270.27 182.36 268.27C182.44 267.54 180.51 262.27 177.76 255.58L163.13 261.58L167.53 268.98C167.53 268.98 166.43 304.98 166.43 308.91C166.43 312.84 168.43 320.47 170.36 320.04C171.813 319.867 173.221 319.422 174.51 318.73C176 317.83 177.34 314.55 178.65 313Z" fill="white" stroke="#263238" stroke-linecap="round" stroke-linejoin="round"/>
<path d="M155.51 328.5L170.1 317.93C170.563 317.513 170.911 316.984 171.109 316.394C171.307 315.803 171.348 315.171 171.23 314.56C170.99 313.09 170.23 311.56 169.32 312.31L155.32 326.96L155.51 328.5Z" fill="white" stroke="#263238" stroke-linecap="round" stroke-linejoin="round"/>
<path d="M155.616 340.014C157.583 328.753 153.696 318.665 146.934 317.484C140.171 316.303 133.094 324.474 131.127 335.736C129.159 346.998 133.046 357.085 139.809 358.266C146.571 359.448 153.648 351.276 155.616 340.014Z" fill="white" stroke="#263238" stroke-linecap="round" stroke-linejoin="round"/>
<path d="M150.64 321.58C151.141 322.094 151.593 322.653 151.99 323.25C152.266 323.661 152.516 324.089 152.74 324.53C152.9 324.84 153.05 325.14 153.18 325.45C153.31 325.76 153.36 325.86 153.44 326.07C153.733 326.813 153.976 327.575 154.17 328.35C154.27 328.74 154.36 329.13 154.44 329.53C154.619 330.459 154.746 331.397 154.82 332.34C154.82 332.44 154.82 332.54 154.82 332.63C154.875 333.586 154.875 334.544 154.82 335.5C154.8 336.407 154.73 337.311 154.61 338.21C154.61 338.7 154.49 339.21 154.4 339.67C154.34 340.05 154.27 340.42 154.19 340.8C154.01 341.63 153.81 342.46 153.57 343.27C153.33 344.08 153.06 344.86 152.75 345.62C152.59 346.04 152.41 346.46 152.22 346.88C152.07 347.2 151.92 347.53 151.76 347.88C151.396 348.605 150.992 349.31 150.55 349.99C150.38 350.27 150.2 350.54 150.02 350.8C149.84 351.06 149.42 351.6 149.12 351.97C148.98 352.15 148.83 352.32 148.68 352.49C148.276 352.939 147.849 353.366 147.4 353.77C147.002 354.13 146.581 354.464 146.14 354.77C145.857 354.967 145.563 355.147 145.26 355.31C144.837 355.554 144.391 355.758 143.93 355.92C143.405 356.126 142.858 356.27 142.3 356.35L141.93 356.4C141.317 356.46 140.698 356.44 140.09 356.34C139.506 356.242 138.938 356.067 138.4 355.82C137.836 355.555 137.309 355.219 136.83 354.82C136.306 354.397 135.824 353.925 135.39 353.41C134.908 352.82 134.479 352.187 134.11 351.52C134.051 351.423 133.997 351.323 133.95 351.22V351.15C133.599 350.463 133.292 349.755 133.03 349.03C132.86 348.54 132.71 348.03 132.57 347.5C132.42 346.93 132.28 346.34 132.18 345.73C132.08 345.12 132.03 344.79 131.97 344.3C131.858 343.304 131.798 342.302 131.79 341.3V340.8C131.79 340.04 131.79 339.29 131.89 338.53C131.99 337.77 132.08 336.77 132.24 335.89C132.4 335.01 132.56 334.2 132.78 333.38C133 332.56 133.23 331.76 133.51 330.97C133.79 330.18 134.09 329.42 134.43 328.68C134.763 327.94 135.137 327.219 135.55 326.52C135.852 325.958 136.186 325.414 136.55 324.89L136.82 324.52C137.306 323.854 137.837 323.223 138.41 322.63C138.72 322.32 139.03 322.03 139.34 321.77C139.68 321.48 140.03 321.22 140.34 320.98C140.751 320.679 141.19 320.418 141.65 320.2C142.041 319.991 142.449 319.817 142.87 319.68C143.16 319.58 143.44 319.51 143.73 319.44C144.356 319.298 144.999 319.244 145.64 319.28C146.239 319.306 146.831 319.414 147.4 319.6C147.975 319.784 148.523 320.043 149.03 320.37C149.611 320.711 150.151 321.117 150.64 321.58Z" stroke="#263238" stroke-linecap="round" stroke-linejoin="round"/>
<path d="M142.36 356.34L142.06 356.16L140.49 355.2L138.93 354.25L137.36 353.29L135.79 352.33L134.22 351.37L134.01 351.25H134" stroke="#263238" stroke-width="0.5" stroke-linecap="round" stroke-linejoin="round"/>
<path d="M145.32 355.3L144.35 354.71L142.78 353.75L141.22 352.8L139.65 351.84L138.08 350.88L136.51 349.93L134.95 348.97L133.37 348.02L132.59 347.53" stroke="#263238" stroke-width="0.5" stroke-linecap="round" stroke-linejoin="round"/>
<path d="M147.46 353.76L146.64 353.26L145.08 352.31L143.51 351.35L141.94 350.39L140.38 349.44L138.81 348.48L137.24 347.53L135.67 346.57L134.1 345.61L132.53 344.66L131.99 344.33" stroke="#263238" stroke-width="0.5" stroke-linecap="round" stroke-linejoin="round"/>
<path d="M149.18 351.96L148.94 351.81L147.38 350.86L145.8 349.9L144.23 348.94L142.66 347.98L141.1 347.04L139.53 346.08L137.96 345.12L136.39 344.16L134.83 343.21L133.26 342.25L131.81 341.37L131.69 341.29" stroke="#263238" stroke-width="0.5" stroke-linecap="round" stroke-linejoin="round"/>
<path d="M131.92 338.59L132.41 338.89L133.98 339.84L135.55 340.8L137.12 341.76L138.69 342.71L140.26 343.67L141.83 344.63L143.39 345.58L144.96 346.54L146.53 347.49L148.1 348.45L149.67 349.41L150.61 349.98" stroke="#263238" stroke-width="0.5" stroke-linecap="round" stroke-linejoin="round"/>
<path d="M151.96 347.96L151.82 347.87L150.39 347L148.82 346.04L147.26 345.09L145.69 344.13L144.12 343.18L142.55 342.22L140.99 341.27L139.42 340.31L137.85 339.35L136.27 338.4L134.71 337.44L133.14 336.48L132.27 335.95" stroke="#263238" stroke-width="0.5" stroke-linecap="round" stroke-linejoin="round"/>
<path d="M132.81 333.44L133.86 334.08L135.43 335.04L137 335.99L138.57 336.95L140.14 337.9L141.71 338.86L143.28 339.81L144.84 340.77L146.41 341.73L147.98 342.68L149.55 343.64L151.12 344.6L152.69 345.55L152.81 345.63" stroke="#263238" stroke-width="0.5" stroke-linecap="round" stroke-linejoin="round"/>
<path d="M133.54 331.03L134.59 331.68L136.16 332.63L137.73 333.59L139.3 334.54L140.87 335.5L142.43 336.46L144.01 337.41L145.57 338.37L147.14 339.31L148.71 340.28L150.28 341.24L151.85 342.19L153.41 343.15L153.63 343.28" stroke="#263238" stroke-width="0.5" stroke-linecap="round" stroke-linejoin="round"/>
<path d="M134.46 328.74L135.32 329.26L136.89 330.23L138.45 331.17L140.02 332.14L141.59 333.1L143.16 334.05L144.73 335.01L146.3 335.95L147.87 336.92L149.44 337.88L151 338.83L152.57 339.79L154.14 340.74L154.25 340.81" stroke="#263238" stroke-width="0.5" stroke-linecap="round" stroke-linejoin="round"/>
<path d="M154.87 338.34L154.67 338.21L153.3 337.38L151.73 336.43L150.16 335.46L148.59 334.51L147.02 333.55L145.46 332.6L143.89 331.65L142.32 330.69L140.75 329.73L139.18 328.77L137.61 327.81L136.04 326.86L135.58 326.58" stroke="#263238" stroke-width="0.5" stroke-linecap="round" stroke-linejoin="round"/>
<path d="M136.77 324.45L136.91 324.55L138.34 325.41L139.91 326.37L141.48 327.32L143.04 328.28L144.61 329.23L146.18 330.19L147.75 331.15L149.31 332.1L150.88 333.06L152.46 334.01L154.03 334.98L154.88 335.5" stroke="#263238" stroke-width="0.5" stroke-linecap="round" stroke-linejoin="round"/>
<path d="M154.84 332.63L154.75 332.57L153.18 331.61L151.62 330.65H151.61L150.04 329.7L148.47 328.74L146.91 327.79L145.34 326.83L143.77 325.87L142.2 324.92L140.63 323.96L139.06 323.01L138.5 322.66" stroke="#263238" stroke-width="0.5" stroke-linecap="round" stroke-linejoin="round"/>
<path d="M140.46 321L141.36 321.56L142.93 322.51L144.5 323.47L146.06 324.43L147.64 325.38L149.2 326.33L150.77 327.29L152.34 328.25L153.91 329.21L154.44 329.53" stroke="#263238" stroke-width="0.5" stroke-linecap="round" stroke-linejoin="round"/>
<path d="M142.99 319.7L143.66 320.11L145.22 321.07L146.79 322.02L148.36 322.98L149.93 323.93L151.49 324.88L153.06 325.85L153.44 326.07" stroke="#263238" stroke-width="0.5" stroke-linecap="round" stroke-linejoin="round"/>
<path d="M131.69 341.29L131.81 340.87L131.82 340.86L132.41 338.89L133.14 336.48L133.86 334.08L134.59 331.68L135.32 329.26L136.04 326.86L136.62 324.95V324.94L136.77 324.45" stroke="#263238" stroke-width="0.5" stroke-linecap="round" stroke-linejoin="round"/>
<path d="M139.43 321.79V321.8L139.06 323.01L138.34 325.41L137.61 327.81L136.89 330.23L136.16 332.63L135.43 335.04L134.71 337.44L133.98 339.84L133.26 342.25L132.53 344.66L132.2 345.76" stroke="#263238" stroke-width="0.5" stroke-linecap="round" stroke-linejoin="round"/>
<path d="M133.06 349.06L133.37 348.02L134.1 345.61L134.83 343.21L135.55 340.8L136.27 338.4L137 335.99L137.73 333.59L138.45 331.17L139.18 328.77L139.91 326.37L140.63 323.96L141.36 321.56L141.77 320.22" stroke="#263238" stroke-width="0.5" stroke-linecap="round" stroke-linejoin="round"/>
<path d="M134.17 351.55L134.22 351.37L134.95 348.97L135.67 346.57L136.39 344.16L137.12 341.76L137.85 339.35L138.57 336.95L139.3 334.54L140.02 332.14L140.75 329.73L141.48 327.32L142.2 324.92L142.93 322.51L143.66 320.11L143.85 319.46" stroke="#263238" stroke-width="0.5" stroke-linecap="round" stroke-linejoin="round"/>
<path d="M135.45 353.44L135.79 352.33L136.51 349.93L137.24 347.53L137.96 345.12L138.69 342.71L139.42 340.31L140.14 337.9L140.87 335.5L141.59 333.1L142.32 330.69L143.04 328.28L143.77 325.87L144.5 323.47L145.22 321.07L145.76 319.3" stroke="#263238" stroke-width="0.5" stroke-linecap="round" stroke-linejoin="round"/>
<path d="M136.89 354.85L137.36 353.29L138.08 350.88L138.81 348.48L139.53 346.08L140.26 343.67L140.99 341.27L141.71 338.86L142.43 336.46L143.16 334.05L143.89 331.65L144.61 329.23L145.34 326.83L146.06 324.43L146.79 322.02L147.52 319.62" stroke="#263238" stroke-width="0.5" stroke-linecap="round" stroke-linejoin="round"/>
<path d="M138.46 355.81L138.93 354.25L139.65 351.84L140.38 349.44L141.1 347.04L141.83 344.63L142.55 342.22L143.28 339.81L144.01 337.41L144.73 335.01L145.46 332.6L146.18 330.19L146.91 327.79L147.64 325.38L148.36 322.98L149.15 320.39" stroke="#263238" stroke-width="0.5" stroke-linecap="round" stroke-linejoin="round"/>
<path d="M140.15 356.33L140.49 355.2L141.22 352.8L141.94 350.39L142.66 347.98L143.39 345.58L144.12 343.18L144.84 340.77L145.57 338.37L146.3 335.95L147.02 333.55L147.75 331.15L148.47 328.74L149.2 326.33L149.93 323.93L150.64 321.58" stroke="#263238" stroke-width="0.5" stroke-linecap="round" stroke-linejoin="round"/>
<path d="M141.99 356.39L142.06 356.16L142.78 353.75L143.51 351.35L144.23 348.94L144.96 346.54L145.69 344.13L146.41 341.73L147.14 339.31L147.87 336.92L148.59 334.51L149.31 332.1L150.04 329.7L150.77 327.29L151.49 324.88L151.99 323.25" stroke="#263238" stroke-width="0.5" stroke-linecap="round" stroke-linejoin="round"/>
<path d="M143.99 355.91L144.35 354.71L145.08 352.31L145.8 349.9L146.53 347.49L147.26 345.09L147.98 342.68L148.71 340.28L149.44 337.88L150.16 335.46L150.88 333.06L151.62 330.65H151.61L152.34 328.25L153.06 325.85L153.18 325.45" stroke="#263238" stroke-width="0.5" stroke-linecap="round" stroke-linejoin="round"/>
<path d="M146.2 354.76V354.75L146.64 353.26L147.38 350.86L148.1 348.45L148.82 346.04L149.55 343.64L150.28 341.24L151 338.83L151.73 336.43L152.46 334.01L153.18 331.61L153.91 329.21L154.17 328.35" stroke="#263238" stroke-width="0.5" stroke-linecap="round" stroke-linejoin="round"/>
<path d="M148.74 352.48L148.94 351.81L149.67 349.41L150.39 347L151.12 344.6L151.85 342.19L152.57 339.79L153.3 337.38L154.03 334.98L154.75 332.57L154.82 332.34" stroke="#263238" stroke-width="0.5" stroke-linecap="round" stroke-linejoin="round"/>
<path d="M154.87 338.34L154.46 339.67V339.68L154.14 340.74L153.41 343.15L152.69 345.55L152.28 346.89V346.9L151.96 347.96" stroke="#263238" stroke-width="0.5" stroke-linecap="round" stroke-linejoin="round"/>
<path d="M481.46 163.45H19.22V171.55H481.46V163.45Z" fill="white"/>
<path d="M481.46 171.55H19.22" stroke="#263238" stroke-linecap="round" stroke-linejoin="round"/>
<path d="M19.22 163.45H481.46" stroke="#263238" stroke-linecap="round" stroke-linejoin="round"/>
<path d="M481.46 284.19H19.22V285.1H481.46V284.19Z" fill="#263238" stroke="#263238" stroke-linecap="round" stroke-linejoin="round"/>
<path d="M38.65 181.51V221.3" stroke="#263238" stroke-width="0.5" stroke-linecap="round" stroke-linejoin="round"/>
<path d="M44.3199 175.74V229.21" stroke="#263238" stroke-width="0.5" stroke-linecap="round" stroke-linejoin="round"/>
<path d="M50 175.74V215.7" stroke="#263238" stroke-width="0.5" stroke-linecap="round" stroke-linejoin="round"/>
<path d="M55.6799 175.74V229.21" stroke="#263238" stroke-width="0.5" stroke-linecap="round" stroke-linejoin="round"/>
<path d="M41.8099 181.32H53.0199" stroke="#263238" stroke-width="0.5" stroke-linecap="round" stroke-linejoin="round"/>
<path d="M47.98 185.62H62.36" stroke="#263238" stroke-width="0.5" stroke-linecap="round" stroke-linejoin="round"/>
<path d="M34.9 185.62H45.55" stroke="#263238" stroke-width="0.5" stroke-linecap="round" stroke-linejoin="round"/>
<path d="M35.08 190.66H63.67" stroke="#263238" stroke-width="0.5" stroke-linecap="round" stroke-linejoin="round"/>
<path d="M54.7 196.46H63.6699" stroke="#263238" stroke-width="0.5" stroke-linecap="round" stroke-linejoin="round"/>
<path d="M35.83 196.46H52.09" stroke="#263238" stroke-width="0.5" stroke-linecap="round" stroke-linejoin="round"/>
<path d="M26.6799 196.46H33.0299" stroke="#263238" stroke-width="0.5" stroke-linecap="round" stroke-linejoin="round"/>
<path d="M31.9099 202.25H63.6699" stroke="#263238" stroke-width="0.5" stroke-linecap="round" stroke-linejoin="round"/>
<path d="M35.08 208.04H63.67" stroke="#263238" stroke-width="0.5" stroke-linecap="round" stroke-linejoin="round"/>
<path d="M29.11 213.83H63.67" stroke="#263238" stroke-width="0.5" stroke-linecap="round" stroke-linejoin="round"/>
<path d="M51.71 219.62H63.67" stroke="#263238" stroke-width="0.5" stroke-linecap="round" stroke-linejoin="round"/>
<path d="M35.08 219.62H46.29" stroke="#263238" stroke-width="0.5" stroke-linecap="round" stroke-linejoin="round"/>
<path d="M61.7999 193.65V210.65" stroke="#263238" stroke-width="0.5" stroke-linecap="round" stroke-linejoin="round"/>
<path d="M200.93 223.24V263.04" stroke="#263238" stroke-width="0.5" stroke-linecap="round" stroke-linejoin="round"/>
<path d="M206.61 217.47V270.94" stroke="#263238" stroke-width="0.5" stroke-linecap="round" stroke-linejoin="round"/>
<path d="M212.29 217.47V257.43" stroke="#263238" stroke-width="0.5" stroke-linecap="round" stroke-linejoin="round"/>
<path d="M217.97 217.47V270.94" stroke="#263238" stroke-width="0.5" stroke-linecap="round" stroke-linejoin="round"/>
<path d="M204.1 223.05H215.31" stroke="#263238" stroke-width="0.5" stroke-linecap="round" stroke-linejoin="round"/>
<path d="M210.26 227.35H224.65" stroke="#263238" stroke-width="0.5" stroke-linecap="round" stroke-linejoin="round"/>
<path d="M197.18 227.35H207.83" stroke="#263238" stroke-width="0.5" stroke-linecap="round" stroke-linejoin="round"/>
<path d="M197.37 232.4H225.96" stroke="#263238" stroke-width="0.5" stroke-linecap="round" stroke-linejoin="round"/>
<path d="M216.99 238.19H225.96" stroke="#263238" stroke-width="0.5" stroke-linecap="round" stroke-linejoin="round"/>
<path d="M198.12 238.19H214.37" stroke="#263238" stroke-width="0.5" stroke-linecap="round" stroke-linejoin="round"/>
<path d="M188.96 238.19H195.32" stroke="#263238" stroke-width="0.5" stroke-linecap="round" stroke-linejoin="round"/>
<path d="M194.2 243.98H225.96" stroke="#263238" stroke-width="0.5" stroke-linecap="round" stroke-linejoin="round"/>
<path d="M197.37 249.77H225.96" stroke="#263238" stroke-width="0.5" stroke-linecap="round" stroke-linejoin="round"/>
<path d="M191.39 255.56H225.96" stroke="#263238" stroke-width="0.5" stroke-linecap="round" stroke-linejoin="round"/>
<path d="M214 261.35H225.96" stroke="#263238" stroke-width="0.5" stroke-linecap="round" stroke-linejoin="round"/>
<path d="M197.37 261.35H208.58" stroke="#263238" stroke-width="0.5" stroke-linecap="round" stroke-linejoin="round"/>
<path d="M224.09 235.38V252.39" stroke="#263238" stroke-width="0.5" stroke-linecap="round" stroke-linejoin="round"/>
<path d="M439.15 223.24V263.04" stroke="#263238" stroke-width="0.5" stroke-linecap="round" stroke-linejoin="round"/>
<path d="M444.83 217.47V270.94" stroke="#263238" stroke-width="0.5" stroke-linecap="round" stroke-linejoin="round"/>
<path d="M450.5 217.47V257.43" stroke="#263238" stroke-width="0.5" stroke-linecap="round" stroke-linejoin="round"/>
<path d="M456.18 217.47V270.94" stroke="#263238" stroke-width="0.5" stroke-linecap="round" stroke-linejoin="round"/>
<path d="M442.31 223.05H453.52" stroke="#263238" stroke-width="0.5" stroke-linecap="round" stroke-linejoin="round"/>
<path d="M448.48 227.35H462.86" stroke="#263238" stroke-width="0.5" stroke-linecap="round" stroke-linejoin="round"/>
<path d="M435.4 227.35H446.05" stroke="#263238" stroke-width="0.5" stroke-linecap="round" stroke-linejoin="round"/>
<path d="M435.59 232.4H464.17" stroke="#263238" stroke-width="0.5" stroke-linecap="round" stroke-linejoin="round"/>
<path d="M455.2 238.19H464.17" stroke="#263238" stroke-width="0.5" stroke-linecap="round" stroke-linejoin="round"/>
<path d="M436.33 238.19H452.59" stroke="#263238" stroke-width="0.5" stroke-linecap="round" stroke-linejoin="round"/>
<path d="M427.18 238.19H433.53" stroke="#263238" stroke-width="0.5" stroke-linecap="round" stroke-linejoin="round"/>
<path d="M432.41 243.98H464.17" stroke="#263238" stroke-width="0.5" stroke-linecap="round" stroke-linejoin="round"/>
<path d="M435.59 249.77H464.17" stroke="#263238" stroke-width="0.5" stroke-linecap="round" stroke-linejoin="round"/>
<path d="M429.61 255.56H464.17" stroke="#263238" stroke-width="0.5" stroke-linecap="round" stroke-linejoin="round"/>
<path d="M452.21 261.35H464.17" stroke="#263238" stroke-width="0.5" stroke-linecap="round" stroke-linejoin="round"/>
<path d="M435.59 261.35H446.8" stroke="#263238" stroke-width="0.5" stroke-linecap="round" stroke-linejoin="round"/>
<path d="M462.3 235.38V252.39" stroke="#263238" stroke-width="0.5" stroke-linecap="round" stroke-linejoin="round"/>
<path d="M281.5 180.93V220.72" stroke="#263238" stroke-width="0.5" stroke-linecap="round" stroke-linejoin="round"/>
<path d="M287.18 175.16V228.63" stroke="#263238" stroke-width="0.5" stroke-linecap="round" stroke-linejoin="round"/>
<path d="M292.85 175.16V215.12" stroke="#263238" stroke-width="0.5" stroke-linecap="round" stroke-linejoin="round"/>
<path d="M298.53 175.16V228.63" stroke="#263238" stroke-width="0.5" stroke-linecap="round" stroke-linejoin="round"/>
<path d="M284.66 180.74H295.87" stroke="#263238" stroke-width="0.5" stroke-linecap="round" stroke-linejoin="round"/>
<path d="M290.83 185.04H305.21" stroke="#263238" stroke-width="0.5" stroke-linecap="round" stroke-linejoin="round"/>
<path d="M277.75 185.04H288.4" stroke="#263238" stroke-width="0.5" stroke-linecap="round" stroke-linejoin="round"/>
<path d="M277.94 190.08H306.52" stroke="#263238" stroke-width="0.5" stroke-linecap="round" stroke-linejoin="round"/>
<path d="M297.55 195.88H306.52" stroke="#263238" stroke-width="0.5" stroke-linecap="round" stroke-linejoin="round"/>
<path d="M278.68 195.88H294.94" stroke="#263238" stroke-width="0.5" stroke-linecap="round" stroke-linejoin="round"/>
<path d="M269.53 195.88H275.88" stroke="#263238" stroke-width="0.5" stroke-linecap="round" stroke-linejoin="round"/>
<path d="M274.76 201.67H306.52" stroke="#263238" stroke-width="0.5" stroke-linecap="round" stroke-linejoin="round"/>
<path d="M277.94 207.46H306.52" stroke="#263238" stroke-width="0.5" stroke-linecap="round" stroke-linejoin="round"/>
<path d="M271.96 213.25H306.52" stroke="#263238" stroke-width="0.5" stroke-linecap="round" stroke-linejoin="round"/>
<path d="M294.56 219.04H306.52" stroke="#263238" stroke-width="0.5" stroke-linecap="round" stroke-linejoin="round"/>
<path d="M277.94 219.04H289.15" stroke="#263238" stroke-width="0.5" stroke-linecap="round" stroke-linejoin="round"/>
<path d="M304.65 193.07V210.08" stroke="#263238" stroke-width="0.5" stroke-linecap="round" stroke-linejoin="round"/>
</svg>
